<svg width="31" height="31" viewBox="0 0 31 31" fill="none" xmlns="http://www.w3.org/2000/svg">
<g clip-path="url(#clip0_19_649)">
<path d="M23.6375 7.37535C23.1337 6.8716 22.32 6.8716 21.8162 7.37535L15.5 13.6787L9.18371 7.36243C8.67996 6.85868 7.86621 6.85868 7.36246 7.36243C6.85871 7.86618 6.85871 8.67993 7.36246 9.18368L13.6787 15.4999L7.36246 21.8162C6.85871 22.3199 6.85871 23.1337 7.36246 23.6374C7.86621 24.1412 8.67996 24.1412 9.18371 23.6374L15.5 17.3212L21.8162 23.6374C22.32 24.1412 23.1337 24.1412 23.6375 23.6374C24.1412 23.1337 24.1412 22.3199 23.6375 21.8162L17.3212 15.4999L23.6375 9.18368C24.1283 8.69285 24.1283 7.86618 23.6375 7.37535Z" fill="#323232"/>
</g>
<defs>
<clipPath id="clip0_19_649">
<rect width="31" height="31" fill="white"/>
</clipPath>
</defs>
</svg>
