<svg width="66" height="66" viewBox="0 0 66 66" fill="none" xmlns="http://www.w3.org/2000/svg">
<path opacity="0.2" d="M33 63.9375C48.9472 63.9375 61.875 51.0097 61.875 35.0625C61.875 19.1153 48.9472 6.1875 33 6.1875C17.0528 6.1875 4.125 19.1153 4.125 35.0625C4.125 51.0097 17.0528 63.9375 33 63.9375Z" fill="black"/>
<path d="M33 61.875C48.9472 61.875 61.875 48.9472 61.875 33C61.875 17.0528 48.9472 4.125 33 4.125C17.0528 4.125 4.125 17.0528 4.125 33C4.125 48.9472 17.0528 61.875 33 61.875Z" fill="#C2352A"/>
<path opacity="0.2" d="M33 18.6106C32.4583 18.6106 31.9219 18.7173 31.4214 18.9246C30.921 19.1319 30.4662 19.4357 30.0832 19.8188C29.7001 20.2018 29.3963 20.6566 29.189 21.157C28.9817 21.6575 28.875 22.1939 28.875 22.7356C28.8757 23.3832 29.0289 24.0214 29.3221 24.5988C29.6154 25.1762 30.0404 25.6764 30.5629 26.059C29.1614 28.4285 27.7587 30.8028 26.3573 33.0562C25.5384 34.3036 24.3106 35.0945 23.0823 35.0945C21.9904 35.0945 19.8653 34.4437 19.1829 33.6121C18.317 32.6071 17.016 31.1468 16.0609 30.1477C16.3456 29.7845 16.5002 29.3362 16.5 28.8748C16.5 28.3277 16.2827 27.8031 15.8959 27.4163C15.5091 27.0296 14.9845 26.8123 14.4375 26.8123C13.8905 26.8123 13.3659 27.0296 12.9791 27.4163C12.5923 27.8031 12.375 28.3277 12.375 28.8748C12.3757 29.3962 12.5739 29.8979 12.9297 30.2791C13.2855 30.6603 13.7724 30.8925 14.2925 30.9292L14.4093 31.2555C15.2282 34.4433 16.942 37.9079 17.7609 41.5116C17.8974 42.066 18.3066 42.4824 18.8525 42.4824C23.493 43.0368 28.2674 43.3123 33.0443 43.3123C37.8213 43.3123 42.5997 43.0368 47.2401 42.4824C47.6496 42.4824 48.0583 42.066 48.1948 41.5116C49.0137 37.9079 50.7275 34.4433 51.5464 31.2555L51.6551 30.9332C52.1852 30.9094 52.6858 30.6822 53.0526 30.2988C53.4195 29.9154 53.6245 29.4054 53.625 28.8748C53.625 28.3277 53.4077 27.8031 53.0209 27.4163C52.6341 27.0296 52.1095 26.8123 51.5625 26.8123C51.0155 26.8123 50.4909 27.0296 50.1041 27.4163C49.7173 27.8031 49.5 28.3277 49.5 28.8748C49.5001 29.4158 49.7127 29.9352 50.0922 30.3209C48.9393 31.4207 47.4215 32.9695 46.6318 33.886C45.8129 34.7176 43.8283 35.0945 42.7365 35.0945C41.3716 35.0945 40.2803 34.3036 39.4614 33.0562C38.078 30.8317 36.6957 28.4862 35.3123 26.1476C35.87 25.7701 36.3268 25.2617 36.6428 24.6669C36.9588 24.0722 37.1243 23.4091 37.125 22.7356C37.125 22.1939 37.0183 21.6575 36.811 21.157C36.6037 20.6566 36.2999 20.2018 35.9168 19.8188C35.5338 19.4357 35.079 19.1319 34.5786 18.9246C34.0781 18.7173 33.5417 18.6106 33 18.6106ZM46.8292 45.3949C46.7 45.3685 46.5502 45.3687 46.3861 45.399C42.0096 46.0006 37.535 46.6088 33.0604 46.6115C28.5443 46.6144 24.0311 46.0062 19.6139 45.399C19.0889 45.2781 18.5625 45.7614 18.5625 46.2449V48.7827C18.5625 49.3871 18.9576 49.9912 19.6139 50.1121C28.4076 52.046 37.5924 52.046 46.3861 50.1121C46.9111 49.9912 47.4375 49.3871 47.4375 48.7827V46.2449C47.4375 45.7916 47.2168 45.4742 46.8292 45.3949Z" fill="black"/>
<path d="M52.0207 27.8081L51.5465 29.1916C50.7276 32.3795 49.0139 35.8445 48.195 39.4482C48.0585 40.0026 47.6491 40.4184 47.2396 40.4184C42.5992 40.9728 37.8222 41.25 33.0453 41.25C28.2683 41.25 23.4914 40.9728 18.8509 40.4184C18.305 40.4184 17.8955 40.0026 17.759 39.4482C16.9401 35.8445 15.2266 32.3795 14.4077 29.1916L13.9336 27.8608C12.9782 27.7222 13.6128 27.2593 13.6128 26.2891C13.6128 25.0417 12.995 25.9521 14.2233 25.6749C15.4517 25.3977 15.5079 25.5264 15.5079 26.9124C15.5079 27.744 16.285 27.1734 15.739 27.7278C16.6944 28.698 18.2293 30.439 19.1847 31.5479C19.8671 32.3795 21.99 33.0317 23.0819 33.0317C24.3103 33.0317 25.5386 32.2409 26.3575 30.9934C27.9953 28.36 29.6332 25.588 31.271 22.8159C30.8615 22.2615 30.5886 21.5685 30.5886 20.8755C30.5886 19.3509 31.5966 19.0185 32.9615 19.0185C34.1898 19.0185 35.229 19.3509 35.229 20.8755C35.229 21.5685 34.956 22.2615 34.5466 22.8159C36.1844 25.588 37.8222 28.36 39.46 30.9934C40.2789 32.2409 41.3708 33.0317 42.7356 33.0317C43.8275 33.0317 45.8142 32.6567 46.6331 31.8251C47.5885 30.7162 49.7512 28.504 50.8431 27.5338C50.2972 26.9794 50.7661 27.4425 50.7661 26.6109C50.7661 25.2248 50.1937 25.3609 51.422 25.6381C52.6504 25.9153 52.5522 26.0564 52.5522 27.3039C52.4157 27.9969 52.9761 27.5309 52.0207 27.8081Z" fill="#FFE15B"/>
<path d="M47.4375 44.1817C47.4375 43.5774 47.0438 43.2148 46.3875 43.3357C42.011 43.9372 37.5369 44.5472 33.0624 44.55C28.5463 44.5529 24.0297 43.9428 19.6125 43.3357C19.0875 43.2148 18.5625 43.6983 18.5625 44.1817V46.72C18.5625 47.3244 18.9562 47.9287 19.6125 48.0496C28.4062 49.9835 37.5938 49.9835 46.3875 48.0496C46.9125 47.9287 47.4375 47.3244 47.4375 46.72V44.1817Z" fill="#FFE15B"/>
<path d="M14.4375 28.875C15.5766 28.875 16.5 27.9516 16.5 26.8125C16.5 25.6734 15.5766 24.75 14.4375 24.75C13.2984 24.75 12.375 25.6734 12.375 26.8125C12.375 27.9516 13.2984 28.875 14.4375 28.875Z" fill="#FFE15B"/>
<path d="M51.5625 28.875C52.7016 28.875 53.625 27.9516 53.625 26.8125C53.625 25.6734 52.7016 24.75 51.5625 24.75C50.4234 24.75 49.5 25.6734 49.5 26.8125C49.5 27.9516 50.4234 28.875 51.5625 28.875Z" fill="#FFE15B"/>
<path d="M33 24.7995C35.2782 24.7995 37.125 22.9526 37.125 20.6745C37.125 18.3963 35.2782 16.5495 33 16.5495C30.7218 16.5495 28.875 18.3963 28.875 20.6745C28.875 22.9526 30.7218 24.7995 33 24.7995Z" fill="#FFE15B"/>
<path opacity="0.2" d="M33 4.125C25.3419 4.125 17.9974 7.16718 12.5823 12.5823C7.16718 17.9974 4.125 25.3419 4.125 33C4.13133 33.4031 4.14611 33.806 4.16931 34.2085C4.39127 26.707 7.5251 19.5866 12.9068 14.3561C18.2885 9.12552 25.4952 6.19573 33 6.1875C40.4456 6.1924 47.6015 9.07322 52.9737 14.2285C58.3459 19.3837 61.5191 26.4149 61.8307 33.854C61.8497 33.5696 61.8644 33.2849 61.875 33C61.875 25.3419 58.8328 17.9974 53.4177 12.5823C48.0026 7.16718 40.6581 4.125 33 4.125Z" fill="white"/>
</svg>
